_______________________________________________________________________________
General
Format                                   : MPEG-4
File size                                : 670 MiB
Duration                                 : 1h 25mn
Overall bit rate                         : 1 102 Kbps
Movie name                               : Cirque.Du.Soleil.Nouvelle.Experience
Genre                                    : Cirque
Recorded date                            : 1991
_______________________________________________________________________________
Video
ID                                       : 1
Format                                   : AVC
Format/Info                              : Advanced Video Codec
Duration                                 : 1h 25mn
Bit rate                                 : 1 000 Kbps
Maximum bit rate                         : 3 617 Kbps
Width                                    : 480 pixels
Height                                   : 400 pixels
Display aspect ratio                     : 1.300
Frame rate mode                          : Constant
Frame rate                               : 23.976 fps
Stream size                              : 609 MiB (91%)
Writing library                          : x264 core 116 r2042 178455c
________________________________________________________________________________
Audio
ID                                       : 2
Format                                   : AAC
Format/Info                              : Advanced Audio Codec
Format profile                           : LC
Duration                                 : 1h 25mn
Bit rate mode                            : Variable
Bit rate                                 : 96.0 Kbps
Maximum bit rate                         : 130 Kbps
Channel(s)                               : 2 channels
Sampling rate                            : 48.0 KHz
Stream size                              : 59.3 MiB (9%)
Title                                    : LC-AAC Stereo
-------------------------------------------------------------------------------